<?xml version="1.0" encoding="UTF-8" standalone="no"?> <svg id="Layer_1" data-name="Layer 1" xmlns="http://www.w3.org/2000/svg" viewBox="0 0 128 128"><defs><style>.cls-1{fill:#2d3e50;}.cls-2{fill:#2e79bd;}</style></defs><title>x</title><path class="cls-1" d="M63.99993,6.0564A57.9436,57.9436,0,1,0,121.9436,63.99993,58.00916,58.00916,0,0,0,63.99993,6.0564Zm0,104.44631a46.50272,46.50272,0,1,1,46.50278-46.50278A46.55537,46.55537,0,0,1,63.99993,110.50272Z"/><circle class="cls-2" cx="61.48833" cy="39.26524" r="7.74597"/><path class="cls-2" d="M56.41651,53.95439A4.60509,4.60509,0,0,0,52.616,58.48922h0a4.60348,4.60348,0,0,0,4.60463,4.60463H57.677V88.60052H55.21362a3.94011,3.94011,0,0,0-3.94011,3.94011h0a3.94011,3.94011,0,0,0,3.94011,3.94011H72.78638a3.94011,3.94011,0,0,0,3.94011-3.94011h0a3.94011,3.94011,0,0,0-3.94011-3.94011H70.34982V56.04026A3.97591,3.97591,0,0,0,65.60173,52.14C61.62628,52.92712,56.57417,53.92668,56.41651,53.95439Z"/></svg>