<?xml version="1.0" encoding="iso-8859-1"?>
<!-- Generator: Adobe Illustrator 18.0.0, SVG Export Plug-In . SVG Version: 6.00 Build 0)  -->
<!DOCTYPE svg PUBLIC "-//W3C//DTD SVG 1.1//EN" "http://www.w3.org/Graphics/SVG/1.1/DTD/svg11.dtd">
<svg version="1.1" id="Capa_1" xmlns="http://www.w3.org/2000/svg" xmlns:xlink="http://www.w3.org/1999/xlink" x="0px" y="0px"
	 viewBox="0 0 272.311 272.311" style="enable-background:new 0 0 272.311 272.311;" xml:space="preserve">
<g>
	<path d="M199.432,83.02c-12.129-27.672-42.073-42.92-71.73-38.333c-3.859,0.597-7.585,1.566-11.177,2.823
		c-0.89-0.018-1.781-0.038-2.671-0.059c-0.747-0.017-0.842,0.858-0.377,1.228c-21.641,8.85-37.402,29.195-40.911,52.839
		c-2.418,16.293,1.378,33.332,11.424,46.515c15.03,19.723,35.633,26.94,45.416,50.659c-6.826,2.682-11.192,11.671-7.472,18.413
		c0.09,0.162,0.226,0.209,0.348,0.293c0.384,1.082,1.332,1.908,2.616,2.548c-0.052,0.026-0.105,0.012-0.156,0.054
		c-0.275,0.228-0.478,0.535-0.723,0.797c-0.3,0.002-0.6,0-0.9,0.002c-0.455,0.002-0.455,0.704,0,0.706c0.086,0,0.171,0,0.257,0
		c-3.601,4.75-3.155,13.275,2.584,15.994c0.021,0.223,0.109,0.431,0.362,0.547c11.756,5.41,26.731,3.072,39.095,0.927
		c8.979-1.557,21.683-3.324,28.191-10.735c3.944,2.929,5.94,7.665,5,12.426c-8.657,8.163-19.894,11.339-31.367,13.333
		c-10.406,1.809-29.088,5.791-38.65-1.434c0.137-0.245,0.191-0.529-0.021-0.853c-0.061-0.093-0.106-0.19-0.165-0.283
		c4.177,0.674,8.386,1.203,12.586,1.691c0.453,0.053,0.565-0.734,0.109-0.803c-4.383-0.665-8.786-1.3-13.198-1.752
		c-0.727-1.349-1.198-2.74-1.376-4.142c3.934-0.047,7.865,0.116,11.787,0.411c0.59,0.044,0.574-0.851,0-0.911
		c-3.948-0.413-7.882-0.459-11.842-0.299c-0.089-1.977,0.412-3.968,1.687-5.89c0.404-0.609-0.475-1.219-0.978-0.755
		c-2.906,2.685-3.82,7.342-2.258,10.948c-0.037,0.109-0.032,0.239,0.041,0.38c2.089,4.03,5.265,6.374,8.989,7.678
		c0.017,0.059-0.01,0.116,0.029,0.174c15.206,22.715,59.306,17.64,62.519-11.975c0.012-0.107-0.018-0.187-0.027-0.281
		c0.903-0.701,1.825-1.374,2.67-2.163c0.299-0.008,0.584-0.103,0.737-0.431c0.051-0.11,0.073-0.228,0.121-0.339
		c0.216-0.215,0.463-0.384,0.674-0.605c0.519-0.543,0.439-1.188,0.101-1.651c1.31-5.37-0.605-11.259-5.233-14.496
		c2.895-4.726,2.698-12.946-1.578-17.069c0.538-0.539,1.074-1.08,1.546-1.672c0.816-1.022-0.086-2.315-1.106-2.144
		c1.029-7.741-4.627-15.92-13.065-15.938c-0.02,0-0.029,0.019-0.049,0.02c-3.561-24.17,16.992-40.655,22.326-62.806
		C207.08,112.221,205.349,96.517,199.432,83.02z M165.844,269.844c-11.536,2.149-22.125-2.48-29.549-11.192
		c7.38,1.689,16.337,0.108,23.425-0.724c11.484-1.348,23.82-3.581,33.67-9.851C190.857,260.887,177.827,267.612,165.844,269.844z
		 M194.448,216.51c0.559,2.066,0.539,4.076,0.16,6.067c-0.206,0.1-0.403,0.244-0.56,0.497c-6.223,9.971-21.225,11.785-31.872,13.495
		c-10.652,1.711-23.635,3.354-34.231,0.278c-0.032-0.161-0.078-0.324-0.209-0.455c-0.753-0.752-1.412-1.578-2.015-2.433
		c3.924,0.898,7.916,1.546,11.945,1.629c0.777,0.016,0.751-1.122,0-1.19c-4.285-0.386-8.526-0.828-12.751-1.655
		c-0.948-1.644-1.526-3.411-1.624-5.2c3.906,0.108,7.823,0.069,11.729,0.016c0.586-0.008,0.587-0.903,0-0.911
		c-3.913-0.053-7.836-0.093-11.75,0.016c0.072-1.742,0.678-3.487,1.918-5.153c1.93,0.013,3.861,0.021,5.791,0.012
		c6.335,0.807,14.024,0.135,15.746-0.02c12.92-1.167,33.468-1.668,44.822-10.242C192.758,212.839,193.867,214.362,194.448,216.51z
		 M180.964,192.881c0.223-0.186,0.4-0.426,0.507-0.706c3.183,0.815,5.904,1.79,8.107,4.476c2.319,2.828,3.152,6.492,2.83,10.088
		c-0.352,0.294-0.728,0.52-1.087,0.791c-0.693-0.051-1.381,0.395-1.437,1.046c-7.274,4.796-15.944,5.683-24.659,7.133
		c-3.634,0.605-38.611,6.255-41.426,0.291c-0.064-0.361-0.099-0.715-0.145-1.072c0.013-0.118,0.006-0.229,0.039-0.353
		c0.054-0.207-0.032-0.378-0.156-0.52c-0.031-0.369-0.023-0.729-0.033-1.093c0.05,0.033,0.068,0.087,0.138,0.104
		c4.31,1.055,8.537,1.089,12.852,0.048c0.656-0.159,0.375-1.132-0.277-1.004c-4.081,0.801-8.217,0.784-12.284-0.101
		c-0.189-0.041-0.338,0.016-0.455,0.112c0.04-2.336,0.555-4.532,1.536-6.519c3.988,0.34,7.985,0.78,11.986,0.826
		c0.55,0.006,0.523-0.779,0-0.837c-3.855-0.425-7.749-0.485-11.627-0.621c1.055-1.877,2.528-3.559,4.556-4.916
		c0.33,0.857,0.682,1.679,0.984,2.579c0.224,0.668,1.05,0.591,1.299,0.109c0.074,0.024,0.112,0.084,0.204,0.085
		c16.044,0.278,33.024-2.312,48.037-8.051C181.341,194.436,181.419,193.432,180.964,192.881z M147.178,199.463
		c-5.941-30.462-20.803-58.006-37.789-83.765c7.97-7.27,21.215-9.006,31.183-5.298c6.992,2.601,12.766,7.649,19.963,9.823
		c1.165,0.352,2.512,0.746,3.931,1.095c-5.007,24.548-4.504,49.891,1.262,74.586C159.569,197.264,153.409,198.495,147.178,199.463z
		 M201.819,115.45c-1.816,28.099-29.222,47.644-23.467,76.702c0.057,0.289,0.175,0.509,0.322,0.689
		c-3.653,0.95-7.273,1.754-10.899,2.579c-4.585-25.197-4.474-49.211,0.07-73.426c4.593,0.672,9.156,0.164,10.6-4.384
		c0.443-1.394-1.468-2.002-2.226-0.938c-1.851,2.595-4.64,3.318-7.866,2.975c1.436-7.201,3.201-14.42,5.413-21.701
		c0.493-1.623-1.945-2.245-2.51-0.692c-2.596,7.134-4.665,14.387-6.268,21.71c-8.425-2.414-18.551-9.808-23.614-11.68
		c-5.925-2.191-12.195-2.594-18.364-1.224c-5.668,1.26-10.931,3.941-14.904,7.72c-1.977-2.971-3.975-5.924-5.994-8.85
		c-0.691-1.001-2.297-0.105-1.654,0.966c1.962,3.267,3.925,6.514,5.878,9.754c-3.867,4.496-6.034,10.239-5.302,16.847
		c0.098,0.881,1.438,0.93,1.413,0c-0.165-6.17,1.826-11.109,5.069-14.887c15.739,26.146,30.602,51.849,37.712,82.177
		c-4.222,0.623-8.48,1.164-12.816,1.572c-0.165,0.016-0.268,0.107-0.376,0.189c-0.256-0.91-0.608-1.738-0.906-2.612
		c0.009-0.17-0.048-0.322-0.157-0.452c-0.216-0.616-0.501-1.173-0.737-1.771c2.91,0.469,5.806,0.936,8.735,1.264
		c0.601,0.067,0.737-0.941,0.143-1.059c-2.845-0.563-5.702-0.985-8.571-1.41c-0.317-0.047-0.532,0.139-0.658,0.364
		c-2.309-5.556-5.476-10.368-9.1-14.782c2.778,0.416,5.593,0.488,8.388,0.088c0.468-0.067,0.354-0.838-0.111-0.822
		c-3.073,0.111-6.089,0.04-9.129-0.267c-2.482-2.923-5.174-5.661-7.953-8.321c1.949,0.316,3.894,0.658,5.852,0.902
		c0.505,0.063,0.627-0.808,0.121-0.895c-2.324-0.4-4.666-0.694-7.005-0.996c-2.311-2.179-4.675-4.308-7.035-6.438
		c3.089,0.329,6.123,0.945,9.15,1.785c0.639,0.177,0.893-0.779,0.272-0.986c-3.464-1.152-7.03-1.725-10.648-1.909
		c-3.176-2.873-6.3-5.784-9.269-8.822c3.937,0.656,7.911,1.399,11.878,1.59c0.543,0.026,0.659-0.824,0.129-0.949
		c-4.316-1.021-8.84-1.38-13.247-1.924c-3.068-3.241-5.909-6.669-8.367-10.417c3.389,0.657,6.791,1.263,10.21,1.72
		c0.621,0.083,0.761-0.971,0.148-1.096c-3.68-0.746-7.401-1.319-11.122-1.833c-2.266-3.648-4.151-7.614-5.51-12.022
		c3.72,0.608,7.449,1.245,11.21,1.523c0.496,0.036,0.616-0.789,0.119-0.877c-3.75-0.659-7.556-0.958-11.348-1.284
		c-0.071-0.006-0.124,0.026-0.172,0.062c-0.849-2.871-1.45-5.758-1.867-8.643c3.752,0.026,7.399,0.429,11.109,1.043
		c0.751,0.124,1.09-0.969,0.321-1.165c-3.768-0.962-7.708-1.201-11.584-0.984c-0.273-2.166-0.424-4.329-0.468-6.484
		c3.525,0.111,7.057,0.132,10.58,0.009c0.777-0.027,0.779-1.181,0-1.209c-3.513-0.123-7.035-0.101-10.549,0.009
		c-0.003-3.756,0.368-7.472,1.019-11.122c4.273,0.27,8.554,0.621,12.835,0.552c0.929-0.015,0.885-1.315,0-1.413
		c-4.163-0.46-8.364-0.523-12.552-0.651c1.653-8.13,4.888-15.852,9.364-22.75c4.357,0.469,8.719,0.982,13.093,1.182
		c0.841,0.038,1.063-1.377,0.203-1.498c-4.078-0.568-8.191-0.871-12.299-1.188c2.297-3.339,4.912-6.449,7.777-9.311
		c4.965,0.475,9.924,0.968,14.912,1.136c0.857,0.029,0.808-1.203,0-1.301c-4.53-0.553-9.081-0.834-13.633-1.108
		c3.002-2.836,6.305-5.346,9.816-7.557c5.186,0.969,10.43,1.409,15.714,0.904c1.017-0.097,1.058-1.652,0-1.618
		c-4.654,0.151-9.228,0.081-13.803-0.461c4.35-2.525,9.058-4.482,14.012-5.886c4.558,0.319,9.118,0.604,13.681,0.653
		c1.187,0.013,1.154-1.729,0-1.822c-2.257-0.183-4.524-0.25-6.789-0.344c1.864-0.296,3.736-0.573,5.661-0.692
		C172.487,44.811,204.308,76.949,201.819,115.45z"/>
	<path d="M95.661,181.366c-8.595,3.937-17.327,7.668-25.855,11.736c-0.854,0.407-0.253,1.821,0.645,1.529
		c8.976-2.917,17.815-7.237,25.942-12.013C97.213,182.136,96.495,180.984,95.661,181.366z"/>
	<path d="M54.219,121.243c-8.861,1.463-17.394,1.036-26.249-0.123c-0.925-0.121-1.092,1.381-0.218,1.607
		c8.841,2.287,18.033,1.997,26.946,0.255C55.847,122.758,55.348,121.057,54.219,121.243z"/>
	<path d="M79.55,50.139C72.9,41.427,68.223,31.712,65.133,21.207c-0.284-0.967-1.729-0.564-1.506,0.415
		c2.499,10.985,7.527,20.792,14.551,29.575C78.791,51.964,80.153,50.928,79.55,50.139z"/>
	<path d="M134.736,0.936c0.122-1.063-1.703-1.319-1.881-0.254c-1.335,7.993-1.433,15.985-0.676,24.047
		c0.11,1.175,1.947,1.202,1.859,0C133.455,16.758,133.829,8.867,134.736,0.936z"/>
	<path d="M191.869,10.802c-6.068,7.061-9.822,15.961-12.385,24.832c-0.371,1.283,1.582,1.806,1.99,0.549
		c2.858-8.79,7.272-16.301,11.913-24.209C193.928,11.052,192.601,9.95,191.869,10.802z"/>
	<path d="M241.515,57.795c-4.488,3.615-8.517,7.802-12.653,11.807c-0.975,0.945,0.496,2.403,1.486,1.486
		c4.221-3.912,8.62-7.707,12.468-11.991C243.623,58.199,242.425,57.061,241.515,57.795z"/>
	<path d="M243.539,128.115c-7.793,3.432-15.454,7.066-23.424,10.087c-1.257,0.477-0.733,2.506,0.564,2.044
		c8.168-2.912,16.333-6.089,23.921-10.317C245.808,129.256,244.746,127.583,243.539,128.115z"/>
	<path d="M156.334,265.44c-4.069-0.832-8.535-1.784-12.698-1.816c-0.405-0.003-0.472,0.578-0.094,0.694
		c3.981,1.224,8.52,1.656,12.661,2.09C156.753,266.465,156.876,265.55,156.334,265.44z"/>
	<path d="M150.308,260.513c-3.762-0.704-7.502-0.924-11.322-0.644c-0.366,0.027-0.374,0.59,0,0.576
		c3.74-0.136,7.458,0.083,11.154,0.678C150.535,261.186,150.711,260.589,150.308,260.513z"/>
	<path d="M134.358,188.5c-2.203-0.039-4.408-0.007-6.611,0c-0.335,0.001-0.336,0.52,0,0.521c2.203,0.007,4.408,0.039,6.611,0
		C134.693,189.015,134.693,188.506,134.358,188.5z"/>
	<path d="M90.727,87.552c-3.496-0.338-7.069-0.094-10.577-0.047c-0.993,0.013-0.994,1.53,0,1.543
		c3.508,0.047,7.081,0.291,10.577-0.047C91.658,88.912,91.66,87.642,90.727,87.552z"/>
</g>
<g>
</g>
<g>
</g>
<g>
</g>
<g>
</g>
<g>
</g>
<g>
</g>
<g>
</g>
<g>
</g>
<g>
</g>
<g>
</g>
<g>
</g>
<g>
</g>
<g>
</g>
<g>
</g>
<g>
</g>
</svg>
