<?xml version="1.0" encoding="iso-8859-1"?>
<!-- Generator: Adobe Illustrator 19.0.0, SVG Export Plug-In . SVG Version: 6.00 Build 0)  -->
<svg version="1.1" id="Layer_1" xmlns="http://www.w3.org/2000/svg" xmlns:xlink="http://www.w3.org/1999/xlink" x="0px" y="0px"
	 viewBox="0 0 512 512" style="enable-background:new 0 0 512 512;" xml:space="preserve">
<path style="fill:#2D527C;" d="M438.558,512H19.786c-8.214,0-14.876-6.66-14.876-14.876V256.916c0-8.216,6.661-14.876,14.876-14.876
	s14.876,6.66,14.876,14.876v225.332h389.021v-32.833c0-8.216,6.661-14.876,14.876-14.876c8.214,0,14.876,6.66,14.876,14.876v47.709
	C453.434,505.34,446.773,512,438.558,512z"/>
<g>
	<polygon style="fill:#CEE8FA;" points="19.786,177.122 19.786,172.332 175.581,14.876 175.581,177.122 	"/>
	<rect x="196.155" y="219.435" style="fill:#CEE8FA;" width="296.061" height="163.65"/>
</g>
<g>
	<path style="fill:#2D527C;" d="M492.216,204.559h-38.782V14.876C453.434,6.66,446.773,0,438.558,0H175.581
		c-0.183,0-0.364,0.021-0.547,0.027c-0.165,0.006-0.329,0.013-0.494,0.025c-0.646,0.045-1.287,0.118-1.915,0.245
		c-0.007,0.001-0.013,0.003-0.019,0.004c-0.626,0.128-1.236,0.308-1.839,0.515c-0.152,0.052-0.302,0.106-0.451,0.162
		c-0.592,0.225-1.174,0.473-1.733,0.772c-0.013,0.007-0.028,0.012-0.042,0.019c-0.571,0.306-1.114,0.663-1.642,1.044
		c-0.132,0.095-0.263,0.193-0.393,0.293c-0.522,0.403-1.031,0.829-1.5,1.303L9.21,161.868c-0.35,0.353-0.678,0.721-0.988,1.104
		c-0.207,0.254-0.388,0.521-0.576,0.784c-0.092,0.131-0.195,0.256-0.283,0.388c-0.213,0.323-0.403,0.656-0.588,0.991
		c-0.048,0.085-0.103,0.167-0.147,0.253c-0.181,0.344-0.339,0.695-0.491,1.047c-0.039,0.089-0.085,0.174-0.12,0.263
		c-0.138,0.338-0.253,0.68-0.364,1.025c-0.037,0.116-0.083,0.229-0.119,0.345c-0.094,0.315-0.165,0.634-0.238,0.954
		c-0.036,0.155-0.079,0.305-0.11,0.461c-0.057,0.292-0.091,0.586-0.131,0.881c-0.025,0.186-0.06,0.37-0.077,0.558
		c-0.027,0.286-0.031,0.573-0.043,0.86c-0.007,0.183-0.027,0.364-0.027,0.547v4.792c0,8.216,6.661,14.876,14.876,14.876H175.58
		c8.214,0,14.876-6.66,14.876-14.876V29.752h233.226v174.807H196.155c-8.214,0-14.876,6.66-14.876,14.876v163.644
		c0,8.216,6.661,14.876,14.876,14.876h296.061c8.215,0,14.876-6.66,14.876-14.876V219.435
		C507.092,211.219,500.43,204.559,492.216,204.559z M160.705,162.246H50.692l56.297-56.896l53.718-54.29v111.186H160.705z
		 M477.34,368.203H211.031V234.311H477.34V368.203z"/>
	<path style="fill:#2D527C;" d="M242.882,262.763c0-3.125,2.874-5.873,7.248-5.873h25.866c16.494,0,29.49,7.747,29.49,28.739v0.626
		c0,20.991-13.495,28.989-30.74,28.989h-12.369v26.992c0,3.999-4.873,5.996-9.748,5.996c-4.872,0-9.747-1.999-9.747-5.996V262.763z
		 M262.375,273.882v26.366h12.369c6.998,0,11.246-3.999,11.246-12.494v-1.375c0-8.499-4.247-12.496-11.246-12.496h-12.369V273.882z"
		/>
	<path style="fill:#2D527C;" d="M358.341,308.371h-24.867v33.865c0,3.999-4.873,5.997-9.748,5.997c-4.872,0-9.747-1.999-9.747-5.997
		v-79.473c0-4.124,4.873-5.873,9.747-5.873s9.748,1.749,9.748,5.873v30.613h24.867v-30.613c0-4.124,4.872-5.873,9.747-5.873
		c4.872,0,9.747,1.749,9.747,5.873v79.473c0,3.999-4.873,5.997-9.747,5.997c-4.873,0-9.747-1.999-9.747-5.997V308.371z"/>
	<path style="fill:#2D527C;" d="M391.329,262.763c0-3.125,2.874-5.873,7.246-5.873h25.868c16.494,0,29.489,7.747,29.489,28.739
		v0.626c0,20.991-13.494,28.989-30.738,28.989h-12.371v26.992c0,3.999-4.873,5.996-9.747,5.996c-4.873,0-9.747-1.999-9.747-5.996
		V262.763z M410.821,273.882v26.366h12.371c6.996,0,11.246-3.999,11.246-12.494v-1.375c0-8.499-4.249-12.496-11.246-12.496h-12.371
		V273.882z"/>
</g>
<g>
</g>
<g>
</g>
<g>
</g>
<g>
</g>
<g>
</g>
<g>
</g>
<g>
</g>
<g>
</g>
<g>
</g>
<g>
</g>
<g>
</g>
<g>
</g>
<g>
</g>
<g>
</g>
<g>
</g>
</svg>
